# 3ds Max Wavefront OBJ Exporter v0.97b - (c)2007 guruware
# File Created: 31.05.2014 05:04:44

mtllib hemacia.mtl

#
# object GeoSphere001
#

v  0.0000 0.0093 -0.0000
v  0.1804 0.0267 -0.0000
v  0.0557 0.0267 -0.1715
v  0.3364 0.0935 -0.0000
v  0.2398 0.0879 -0.1742
v  0.1040 0.0935 -0.3200
v  0.4472 0.1453 -0.0000
v  0.3922 0.1572 -0.1715
v  0.2843 0.1572 -0.3200
v  0.1382 0.1453 -0.4253
v  -0.1459 0.0267 -0.1060
v  -0.0916 0.0879 -0.2818
v  -0.2722 0.0935 -0.1978
v  -0.0420 0.1572 -0.4260
v  -0.2165 0.1572 -0.3693
v  -0.3618 0.1453 -0.2629
v  -0.1459 0.0267 0.1060
v  -0.2964 0.0879 0.0000
v  -0.2722 0.0935 0.1978
v  -0.4181 0.1572 -0.0917
v  -0.4181 0.1572 0.0917
v  -0.3618 0.1453 0.2629
v  0.0557 0.0267 0.1715
v  -0.0916 0.0879 0.2818
v  0.1040 0.0935 0.3200
v  -0.2165 0.1572 0.3693
v  -0.0420 0.1572 0.4260
v  0.1382 0.1453 0.4253
v  0.2398 0.0879 0.1742
v  0.2843 0.1572 0.3200
v  0.3922 0.1572 0.1715
v  0.5057 0.0633 0.1111
v  0.5057 0.0633 -0.1111
v  0.5138 0.0000 0.1268
v  0.5194 0.0000 0.0996
v  0.5194 0.0000 -0.0996
v  0.5138 0.0000 -0.1268
v  0.2620 0.0633 -0.4466
v  0.0506 0.0633 -0.5153
v  0.2794 0.0000 -0.4495
v  0.2552 0.0000 -0.4632
v  0.0658 0.0000 -0.5248
v  0.0382 0.0000 -0.5279
v  -0.3438 0.0633 -0.3872
v  -0.4744 0.0633 -0.2073
v  -0.3412 0.0000 -0.4046
v  -0.3617 0.0000 -0.3859
v  -0.4788 0.0000 -0.2248
v  -0.4902 0.0000 -0.1995
v  -0.4744 0.0633 0.2073
v  -0.3438 0.0633 0.3872
v  -0.4902 0.0000 0.1995
v  -0.4788 0.0000 0.2248
v  -0.3617 0.0000 0.3859
v  -0.3412 0.0000 0.4046
v  0.0506 0.0633 0.5153
v  0.2620 0.0633 0.4466
v  0.0382 0.0000 0.5279
v  0.0658 0.0000 0.5248
v  0.2552 0.0000 0.4632
v  0.2794 0.0000 0.4495
v  0.4179 0.0707 -0.3036
v  -0.1596 0.0707 -0.4913
v  -0.5166 0.0707 0.0000
v  -0.1596 0.0707 0.4913
v  0.4179 0.0707 0.3036
v  0.4174 0.0000 -0.3245
v  0.4376 0.0000 -0.2967
v  -0.1796 0.0000 -0.4972
v  -0.1469 0.0000 -0.5078
v  -0.5284 0.0000 0.0172
v  -0.5284 0.0000 -0.0172
v  -0.1469 0.0000 0.5078
v  -0.1796 0.0000 0.4972
v  0.4376 0.0000 0.2967
v  0.4174 0.0000 0.3245
v  0.0000 -0.0093 -0.0000
v  0.0557 -0.0267 -0.1715
v  0.1804 -0.0267 -0.0000
v  0.2398 -0.0879 -0.1742
v  0.3364 -0.0935 -0.0000
v  0.1040 -0.0935 -0.3200
v  0.3922 -0.1572 -0.1715
v  0.4472 -0.1453 -0.0000
v  0.2843 -0.1572 -0.3200
v  0.1382 -0.1453 -0.4253
v  -0.1459 -0.0267 -0.1060
v  -0.0916 -0.0879 -0.2818
v  -0.2722 -0.0935 -0.1978
v  -0.0420 -0.1572 -0.4260
v  -0.2165 -0.1572 -0.3693
v  -0.3618 -0.1453 -0.2629
v  -0.1459 -0.0267 0.1060
v  -0.2964 -0.0879 0.0000
v  -0.2722 -0.0935 0.1978
v  -0.4181 -0.1572 -0.0917
v  -0.4181 -0.1572 0.0917
v  -0.3618 -0.1453 0.2629
v  0.0557 -0.0267 0.1715
v  -0.0916 -0.0879 0.2818
v  0.1040 -0.0935 0.3200
v  -0.2165 -0.1572 0.3693
v  -0.0420 -0.1572 0.4260
v  0.1382 -0.1453 0.4253
v  0.2398 -0.0879 0.1742
v  0.2843 -0.1572 0.3200
v  0.3922 -0.1572 0.1715
v  0.5057 -0.0633 -0.1111
v  0.5057 -0.0633 0.1111
v  0.0506 -0.0633 -0.5153
v  0.2620 -0.0633 -0.4466
v  -0.4744 -0.0633 -0.2073
v  -0.3438 -0.0633 -0.3872
v  -0.3438 -0.0633 0.3872
v  -0.4744 -0.0633 0.2073
v  0.2620 -0.0633 0.4466
v  0.0506 -0.0633 0.5153
v  0.4179 -0.0707 -0.3036
v  -0.1596 -0.0707 -0.4913
v  -0.5166 -0.0707 0.0000
v  -0.1596 -0.0707 0.4913
v  0.4179 -0.0707 0.3036
# 122 vertices

vn -0.0000 1.0000 0.0000
vn -0.2778 0.9607 0.0000
vn -0.0858 0.9607 0.2642
vn -0.4111 0.9116 -0.0000
vn -0.3535 0.8995 0.2568
vn -0.1270 0.9116 0.3910
vn 0.3219 0.9468 -0.0000
vn 0.2003 0.9779 -0.0607
vn 0.1196 0.9779 -0.1717
vn 0.0995 0.9468 -0.3062
vn 0.2247 0.9607 0.1633
vn 0.1350 0.8995 0.4155
vn 0.3326 0.9116 0.2417
vn 0.0042 0.9779 -0.2092
vn -0.1264 0.9779 -0.1668
vn -0.2604 0.9468 -0.1892
vn 0.2247 0.9607 -0.1633
vn 0.4369 0.8995 -0.0000
vn 0.3326 0.9116 -0.2417
vn -0.1977 0.9779 -0.0687
vn -0.1977 0.9779 0.0687
vn -0.2605 0.9468 0.1892
vn -0.0858 0.9607 -0.2642
vn 0.1350 0.8995 -0.4155
vn -0.1270 0.9116 -0.3910
vn -0.1264 0.9779 0.1668
vn 0.0042 0.9779 0.2092
vn 0.0995 0.9468 0.3062
vn -0.3535 0.8995 -0.2568
vn 0.1196 0.9779 0.1717
vn 0.2003 0.9779 0.0607
vn 0.8776 0.4389 0.1926
vn 0.8776 0.4389 -0.1926
vn 0.9476 0.0000 0.3196
vn 0.9960 -0.0000 0.0888
vn 0.9960 -0.0000 -0.0888
vn 0.9476 0.0000 -0.3196
vn 0.4544 0.4389 -0.7752
vn 0.0880 0.4389 -0.8942
vn 0.5968 0.0000 -0.8024
vn 0.3923 0.0000 -0.9198
vn 0.2233 0.0000 -0.9747
vn -0.0111 -0.0000 -0.9999
vn -0.5968 0.4389 -0.6717
vn -0.8233 0.4389 -0.3600
vn -0.5787 0.0000 -0.8155
vn -0.7536 -0.0000 -0.6573
vn -0.8580 -0.0000 -0.5136
vn -0.9544 0.0000 -0.2984
vn -0.8233 0.4389 0.3600
vn -0.5968 0.4389 0.6717
vn -0.9544 0.0000 0.2984
vn -0.8580 0.0000 0.5136
vn -0.7536 0.0000 0.6573
vn -0.5787 0.0000 0.8155
vn 0.0880 0.4389 0.8942
vn 0.4544 0.4389 0.7752
vn -0.0111 -0.0000 0.9999
vn 0.2233 0.0000 0.9747
vn 0.3923 -0.0000 0.9198
vn 0.5968 0.0000 0.8024
vn 0.7166 0.4642 -0.5206
vn -0.2737 0.4642 -0.8424
vn -0.8857 0.4642 0.0000
vn -0.2737 0.4642 0.8424
vn 0.7166 0.4642 0.5206
vn 0.7343 0.0000 -0.6788
vn 0.8725 0.0000 -0.4886
vn -0.4187 0.0000 -0.9081
vn -0.1950 0.0000 -0.9808
vn -0.9931 -0.0000 0.1176
vn -0.9931 0.0000 -0.1176
vn -0.1950 0.0000 0.9808
vn -0.4187 0.0000 0.9081
vn 0.8725 0.0000 0.4886
vn 0.7343 0.0000 0.6788
vn -0.0000 -1.0000 0.0000
vn -0.0858 -0.9607 0.2642
vn -0.2778 -0.9607 0.0000
vn -0.3535 -0.8995 0.2568
vn -0.4111 -0.9116 -0.0000
vn -0.1270 -0.9116 0.3910
vn 0.2003 -0.9779 -0.0607
vn 0.3219 -0.9468 -0.0000
vn 0.1196 -0.9779 -0.1717
vn 0.0995 -0.9468 -0.3062
vn 0.2247 -0.9607 0.1633
vn 0.1350 -0.8995 0.4155
vn 0.3326 -0.9116 0.2417
vn 0.0042 -0.9779 -0.2092
vn -0.1264 -0.9779 -0.1668
vn -0.2604 -0.9468 -0.1892
vn 0.2247 -0.9607 -0.1633
vn 0.4369 -0.8995 -0.0000
vn 0.3326 -0.9116 -0.2417
vn -0.1977 -0.9779 -0.0687
vn -0.1977 -0.9779 0.0687
vn -0.2604 -0.9468 0.1892
vn -0.0858 -0.9607 -0.2642
vn 0.1350 -0.8995 -0.4155
vn -0.1270 -0.9116 -0.3910
vn -0.1264 -0.9779 0.1668
vn 0.0042 -0.9779 0.2092
vn 0.0995 -0.9468 0.3062
vn -0.3535 -0.8995 -0.2568
vn 0.1196 -0.9779 0.1717
vn 0.2003 -0.9779 0.0607
vn 0.8776 -0.4389 -0.1926
vn 0.8776 -0.4389 0.1926
vn 0.0880 -0.4389 -0.8942
vn 0.4544 -0.4389 -0.7752
vn -0.8233 -0.4389 -0.3600
vn -0.5968 -0.4389 -0.6717
vn -0.5968 -0.4389 0.6717
vn -0.8233 -0.4389 0.3600
vn 0.4544 -0.4389 0.7752
vn 0.0880 -0.4389 0.8942
vn 0.7166 -0.4642 -0.5206
vn -0.2737 -0.4642 -0.8424
vn -0.8857 -0.4642 0.0000
vn -0.2737 -0.4642 0.8424
vn 0.7166 -0.4642 0.5206
# 122 vertex normals

vt 0.6000 1.0000 0.5000
vt 0.5000 0.8825 0.5000
vt 0.7000 0.8825 0.5000
vt 0.5000 0.7651 0.5000
vt 0.6000 0.7981 0.5000
vt 0.7000 0.7651 0.5000
vt 0.5000 0.6476 0.5000
vt 0.5656 0.6729 0.5000
vt 0.6344 0.6729 0.5000
vt 0.7000 0.6476 0.5000
vt 0.8000 1.0000 0.5000
vt 0.9000 0.8825 0.5000
vt 0.8000 0.7981 0.5000
vt 0.9000 0.7651 0.5000
vt 0.7656 0.6729 0.5000
vt 0.8344 0.6729 0.5000
vt 0.9000 0.6476 0.5000
vt 0.0000 1.0000 0.5000
vt -0.1000 0.8825 0.5000
vt 0.1000 0.8825 0.5000
vt -0.1000 0.7651 0.5000
vt 0.0000 0.7981 0.5000
vt 0.1000 0.7651 0.5000
vt 0.9656 0.6729 0.5000
vt -0.0344 0.6729 0.5000
vt 0.0344 0.6729 0.5000
vt 0.1000 0.6476 0.5000
vt 0.2000 1.0000 0.5000
vt 0.3000 0.8825 0.5000
vt 0.2000 0.7981 0.5000
vt 0.3000 0.7651 0.5000
vt 0.1656 0.6729 0.5000
vt 0.2344 0.6729 0.5000
vt 0.3000 0.6476 0.5000
vt 0.4000 1.0000 0.5000
vt 0.4000 0.7981 0.5000
vt 0.3656 0.6729 0.5000
vt 0.4344 0.6729 0.5000
vt 0.4656 0.5499 0.5000
vt 0.5344 0.5499 0.5000
vt 0.4617 0.5373 0.5000
vt 0.4697 0.5373 0.5000
vt 0.5303 0.5373 0.5000
vt 0.5383 0.5373 0.5000
vt 0.6656 0.5499 0.5000
vt 0.7344 0.5499 0.5000
vt 0.6617 0.5373 0.5000
vt 0.6697 0.5373 0.5000
vt 0.7303 0.5373 0.5000
vt 0.7383 0.5373 0.5000
vt 0.8656 0.5499 0.5000
vt 0.9344 0.5499 0.5000
vt 0.8617 0.5373 0.5000
vt 0.8697 0.5373 0.5000
vt 0.9303 0.5373 0.5000
vt 0.9383 0.5373 0.5000
vt 0.0656 0.5499 0.5000
vt 0.1344 0.5499 0.5000
vt 0.0617 0.5373 0.5000
vt 0.0697 0.5373 0.5000
vt 0.1303 0.5373 0.5000
vt 0.1383 0.5373 0.5000
vt 0.2656 0.5499 0.5000
vt 0.3344 0.5499 0.5000
vt 0.2617 0.5373 0.5000
vt 0.2697 0.5373 0.5000
vt 0.3303 0.5373 0.5000
vt 0.3383 0.5373 0.5000
vt 0.6000 0.5544 0.5000
vt 0.8000 0.5544 0.5000
vt 0.0000 0.5544 0.5000
vt -0.0656 0.5499 0.5000
vt 0.2000 0.5544 0.5000
vt 0.4000 0.5544 0.5000
vt 0.6050 0.5393 0.5000
vt 0.5950 0.5393 0.5000
vt 0.8050 0.5393 0.5000
vt 0.7950 0.5393 0.5000
vt 0.0050 0.5393 0.5000
vt -0.0050 0.5393 0.5000
vt -0.0617 0.5373 0.5000
vt 0.2050 0.5393 0.5000
vt 0.1950 0.5393 0.5000
vt 0.4050 0.5393 0.5000
vt 0.3950 0.5393 0.5000
# 85 texture coords

g GeoSphere001
usemtl wire_135006006
s 1
f 1/1/1 2/2/2 3/3/3 
f 2/2/2 4/4/4 5/5/5 
f 2/2/2 5/5/5 3/3/3 
f 3/3/3 5/5/5 6/6/6 
f 4/4/4 7/7/7 8/8/8 
f 4/4/4 8/8/8 5/5/5 
f 5/5/5 8/8/8 9/9/9 
f 5/5/5 9/9/9 6/6/6 
f 6/6/6 9/9/9 10/10/10 
f 1/11/1 3/3/3 11/12/11 
f 3/3/3 6/6/6 12/13/12 
f 3/3/3 12/13/12 11/12/11 
f 11/12/11 12/13/12 13/14/13 
f 6/6/6 10/10/10 14/15/14 
f 6/6/6 14/15/14 12/13/12 
f 12/13/12 14/15/14 15/16/15 
f 12/13/12 15/16/15 13/14/13 
f 13/14/13 15/16/15 16/17/16 
f 1/18/1 11/19/11 17/20/17 
f 11/19/11 13/21/13 18/22/18 
f 11/19/11 18/22/18 17/20/17 
f 17/20/17 18/22/18 19/23/19 
f 13/14/13 16/17/16 20/24/20 
f 13/21/13 20/25/20 18/22/18 
f 18/22/18 20/25/20 21/26/21 
f 18/22/18 21/26/21 19/23/19 
f 19/23/19 21/26/21 22/27/22 
f 1/28/1 17/20/17 23/29/23 
f 17/20/17 19/23/19 24/30/24 
f 17/20/17 24/30/24 23/29/23 
f 23/29/23 24/30/24 25/31/25 
f 19/23/19 22/27/22 26/32/26 
f 19/23/19 26/32/26 24/30/24 
f 24/30/24 26/32/26 27/33/27 
f 24/30/24 27/33/27 25/31/25 
f 25/31/25 27/33/27 28/34/28 
f 1/35/1 23/29/23 2/2/2 
f 23/29/23 25/31/25 29/36/29 
f 23/29/23 29/36/29 2/2/2 
f 2/2/2 29/36/29 4/4/4 
f 25/31/25 28/34/28 30/37/30 
f 25/31/25 30/37/30 29/36/29 
f 29/36/29 30/37/30 31/38/31 
f 29/36/29 31/38/31 4/4/4 
f 4/4/4 31/38/31 7/7/7 
f 7/7/7 32/39/32 33/40/33 
f 32/39/32 34/41/34 35/42/35 
f 35/42/35 36/43/36 33/40/33 
f 33/40/33 32/39/32 35/42/35 
f 33/40/33 36/43/36 37/44/37 
f 10/10/10 38/45/38 39/46/39 
f 38/45/38 40/47/40 41/48/41 
f 41/48/41 42/49/42 39/46/39 
f 39/46/39 38/45/38 41/48/41 
f 39/46/39 42/49/42 43/50/43 
f 16/17/16 44/51/44 45/52/45 
f 44/51/44 46/53/46 47/54/47 
f 47/54/47 48/55/48 45/52/45 
f 45/52/45 44/51/44 47/54/47 
f 45/52/45 48/55/48 49/56/49 
f 22/27/22 50/57/50 51/58/51 
f 50/57/50 52/59/52 53/60/53 
f 53/60/53 54/61/54 51/58/51 
f 51/58/51 50/57/50 53/60/53 
f 51/58/51 54/61/54 55/62/55 
f 28/34/28 56/63/56 57/64/57 
f 56/63/56 58/65/58 59/66/59 
f 59/66/59 60/67/60 57/64/57 
f 57/64/57 56/63/56 59/66/59 
f 57/64/57 60/67/60 61/68/61 
f 38/45/38 10/10/10 9/9/9 
f 38/45/38 9/9/9 62/69/62 
f 62/69/62 9/9/9 8/8/8 
f 62/69/62 8/8/8 33/40/33 
f 33/40/33 8/8/8 7/7/7 
f 44/51/44 16/17/16 15/16/15 
f 44/51/44 15/16/15 63/70/63 
f 63/70/63 15/16/15 14/15/14 
f 63/70/63 14/15/14 39/46/39 
f 39/46/39 14/15/14 10/10/10 
f 50/57/50 22/27/22 21/26/21 
f 50/57/50 21/26/21 64/71/64 
f 64/71/64 21/26/21 20/25/20 
f 64/71/64 20/25/20 45/72/45 
f 45/52/45 20/24/20 16/17/16 
f 56/63/56 28/34/28 27/33/27 
f 56/63/56 27/33/27 65/73/65 
f 65/73/65 27/33/27 26/32/26 
f 65/73/65 26/32/26 51/58/51 
f 51/58/51 26/32/26 22/27/22 
f 32/39/32 7/7/7 31/38/31 
f 32/39/32 31/38/31 66/74/66 
f 66/74/66 31/38/31 30/37/30 
f 66/74/66 30/37/30 57/64/57 
f 57/64/57 30/37/30 28/34/28 
f 38/45/38 62/69/62 67/75/67 
f 67/75/67 40/47/40 38/45/38 
f 67/75/67 62/69/62 68/76/68 
f 68/76/68 62/69/62 33/40/33 
f 33/40/33 37/44/37 68/76/68 
f 44/51/44 63/70/63 69/77/69 
f 69/77/69 46/53/46 44/51/44 
f 69/77/69 63/70/63 70/78/70 
f 70/78/70 63/70/63 39/46/39 
f 39/46/39 43/50/43 70/78/70 
f 50/57/50 64/71/64 71/79/71 
f 71/79/71 52/59/52 50/57/50 
f 71/79/71 64/71/64 72/80/72 
f 72/80/72 64/71/64 45/72/45 
f 45/72/45 49/81/49 72/80/72 
f 56/63/56 65/73/65 73/82/73 
f 73/82/73 58/65/58 56/63/56 
f 73/82/73 65/73/65 74/83/74 
f 74/83/74 65/73/65 51/58/51 
f 51/58/51 55/62/55 74/83/74 
f 32/39/32 66/74/66 75/84/75 
f 75/84/75 34/41/34 32/39/32 
f 75/84/75 66/74/66 76/85/76 
f 76/85/76 66/74/66 57/64/57 
f 57/64/57 61/68/61 76/85/76 
f 77/1/77 78/3/78 79/2/79 
f 79/2/79 80/5/80 81/4/81 
f 79/2/79 78/3/78 80/5/80 
f 78/3/78 82/6/82 80/5/80 
f 81/4/81 83/8/83 84/7/84 
f 81/4/81 80/5/80 83/8/83 
f 80/5/80 85/9/85 83/8/83 
f 80/5/80 82/6/82 85/9/85 
f 82/6/82 86/10/86 85/9/85 
f 77/11/77 87/12/87 78/3/78 
f 78/3/78 88/13/88 82/6/82 
f 78/3/78 87/12/87 88/13/88 
f 87/12/87 89/14/89 88/13/88 
f 82/6/82 90/15/90 86/10/86 
f 82/6/82 88/13/88 90/15/90 
f 88/13/88 91/16/91 90/15/90 
f 88/13/88 89/14/89 91/16/91 
f 89/14/89 92/17/92 91/16/91 
f 77/18/77 93/20/93 87/19/87 
f 87/19/87 94/22/94 89/21/89 
f 87/19/87 93/20/93 94/22/94 
f 93/20/93 95/23/95 94/22/94 
f 89/14/89 96/24/96 92/17/92 
f 89/21/89 94/22/94 96/25/96 
f 94/22/94 97/26/97 96/25/96 
f 94/22/94 95/23/95 97/26/97 
f 95/23/95 98/27/98 97/26/97 
f 77/28/77 99/29/99 93/20/93 
f 93/20/93 100/30/100 95/23/95 
f 93/20/93 99/29/99 100/30/100 
f 99/29/99 101/31/101 100/30/100 
f 95/23/95 102/32/102 98/27/98 
f 95/23/95 100/30/100 102/32/102 
f 100/30/100 103/33/103 102/32/102 
f 100/30/100 101/31/101 103/33/103 
f 101/31/101 104/34/104 103/33/103 
f 77/35/77 79/2/79 99/29/99 
f 99/29/99 105/36/105 101/31/101 
f 99/29/99 79/2/79 105/36/105 
f 79/2/79 81/4/81 105/36/105 
f 101/31/101 106/37/106 104/34/104 
f 101/31/101 105/36/105 106/37/106 
f 105/36/105 107/38/107 106/37/106 
f 105/36/105 81/4/81 107/38/107 
f 81/4/81 84/7/84 107/38/107 
f 84/7/84 108/40/108 109/39/109 
f 109/39/109 35/42/35 34/41/34 
f 35/42/35 109/39/109 108/40/108 
f 108/40/108 36/43/36 35/42/35 
f 108/40/108 37/44/37 36/43/36 
f 86/10/86 110/46/110 111/45/111 
f 111/45/111 41/48/41 40/47/40 
f 41/48/41 111/45/111 110/46/110 
f 110/46/110 42/49/42 41/48/41 
f 110/46/110 43/50/43 42/49/42 
f 92/17/92 112/52/112 113/51/113 
f 113/51/113 47/54/47 46/53/46 
f 47/54/47 113/51/113 112/52/112 
f 112/52/112 48/55/48 47/54/47 
f 112/52/112 49/56/49 48/55/48 
f 98/27/98 114/58/114 115/57/115 
f 115/57/115 53/60/53 52/59/52 
f 53/60/53 115/57/115 114/58/114 
f 114/58/114 54/61/54 53/60/53 
f 114/58/114 55/62/55 54/61/54 
f 104/34/104 116/64/116 117/63/117 
f 117/63/117 59/66/59 58/65/58 
f 59/66/59 117/63/117 116/64/116 
f 116/64/116 60/67/60 59/66/59 
f 116/64/116 61/68/61 60/67/60 
f 111/45/111 85/9/85 86/10/86 
f 111/45/111 118/69/118 85/9/85 
f 118/69/118 83/8/83 85/9/85 
f 118/69/118 108/40/108 83/8/83 
f 108/40/108 84/7/84 83/8/83 
f 113/51/113 91/16/91 92/17/92 
f 113/51/113 119/70/119 91/16/91 
f 119/70/119 90/15/90 91/16/91 
f 119/70/119 110/46/110 90/15/90 
f 110/46/110 86/10/86 90/15/90 
f 115/57/115 97/26/97 98/27/98 
f 115/57/115 120/71/120 97/26/97 
f 120/71/120 96/25/96 97/26/97 
f 120/71/120 112/72/112 96/25/96 
f 112/52/112 92/17/92 96/24/96 
f 117/63/117 103/33/103 104/34/104 
f 117/63/117 121/73/121 103/33/103 
f 121/73/121 102/32/102 103/33/103 
f 121/73/121 114/58/114 102/32/102 
f 114/58/114 98/27/98 102/32/102 
f 109/39/109 107/38/107 84/7/84 
f 109/39/109 122/74/122 107/38/107 
f 122/74/122 106/37/106 107/38/107 
f 122/74/122 116/64/116 106/37/106 
f 116/64/116 104/34/104 106/37/106 
f 111/45/111 40/47/40 67/75/67 
f 67/75/67 118/69/118 111/45/111 
f 67/75/67 68/76/68 118/69/118 
f 68/76/68 37/44/37 108/40/108 
f 108/40/108 118/69/118 68/76/68 
f 113/51/113 46/53/46 69/77/69 
f 69/77/69 119/70/119 113/51/113 
f 69/77/69 70/78/70 119/70/119 
f 70/78/70 43/50/43 110/46/110 
f 110/46/110 119/70/119 70/78/70 
f 115/57/115 52/59/52 71/79/71 
f 71/79/71 120/71/120 115/57/115 
f 71/79/71 72/80/72 120/71/120 
f 72/80/72 49/81/49 112/72/112 
f 112/72/112 120/71/120 72/80/72 
f 117/63/117 58/65/58 73/82/73 
f 73/82/73 121/73/121 117/63/117 
f 73/82/73 74/83/74 121/73/121 
f 74/83/74 55/62/55 114/58/114 
f 114/58/114 121/73/121 74/83/74 
f 109/39/109 34/41/34 75/84/75 
f 75/84/75 122/74/122 109/39/109 
f 75/84/75 76/85/76 122/74/122 
f 76/85/76 61/68/61 116/64/116 
f 116/64/116 122/74/122 76/85/76 
# 240 faces

